<svg width="162" height="85" viewBox="0 0 162 85" fill="none" xmlns="http://www.w3.org/2000/svg">
<path d="M8.62734 27.5941L8.74687 29.0891L7.57265 30.0633L9.07734 30.4167L9.66797 31.801L10.4766 30.524L12.0094 30.4044L11.0109 29.2621L11.3695 27.8047L9.94218 28.3755L8.62734 27.5941V27.5941ZM32.625 28.1875C32.3266 28.1875 32.0405 28.3027 31.8295 28.5078C31.6185 28.7129 31.5 28.9911 31.5 29.2812C31.5 29.5713 31.6185 29.8495 31.8295 30.0546C32.0405 30.2597 32.3266 30.375 32.625 30.375C32.9234 30.375 33.2095 30.2597 33.4205 30.0546C33.6315 29.8495 33.75 29.5713 33.75 29.2812C33.75 28.9911 33.6315 28.7129 33.4205 28.5078C33.2095 28.3027 32.9234 28.1875 32.625 28.1875V28.1875ZM16.8609 28.9052C16.5626 28.9052 16.2764 29.0205 16.0654 29.2256C15.8545 29.4307 15.7359 29.7089 15.7359 29.999C15.7359 30.2891 15.8545 30.5673 16.0654 30.7724C16.2764 30.9775 16.5626 31.0927 16.8609 31.0927C17.1593 31.0927 17.4455 30.9775 17.6564 30.7724C17.8674 30.5673 17.9859 30.2891 17.9859 29.999C17.9859 29.7089 17.8674 29.4307 17.6564 29.2256C17.4455 29.0205 17.1593 28.9052 16.8609 28.9052V28.9052ZM29.7914 29.3728C29.1445 29.4918 28.5469 29.8636 27.9703 30.349C27.4359 30.7954 26.9367 31.3511 26.5148 31.952C25.193 32.1578 23.8711 32.6814 22.9852 33.3965C21.8531 34.2988 20.8477 35.8437 20.2992 37.4365C19.7789 37.6484 19.2867 37.9013 18.8859 38.1748C17.7961 38.9199 17.2336 40.3486 16.8187 41.5928C16.4039 42.8437 16.2 43.9375 16.2 43.9375L17.4516 44.1562C17.4516 44.1562 17.6414 43.1308 18.0211 41.9756C18.4078 40.8203 19.0617 39.5625 19.6172 39.1865C19.7086 39.125 19.8281 39.0566 19.9336 38.9951C19.8914 39.3847 19.8914 39.7744 19.9547 40.1435C20.0812 40.9228 20.5172 41.6679 21.2906 42.0713C21.8391 42.3584 22.4578 42.29 22.9781 42.0849C23.4984 41.873 23.9625 41.5244 24.3633 41.1142C24.7641 40.7041 25.0945 40.2187 25.2914 39.706C25.4883 39.1933 25.5586 38.6123 25.3055 38.0722H25.2984C25.0242 37.498 24.4969 37.1289 23.9344 36.9717C23.3719 36.8144 22.7672 36.8213 22.1625 36.9101C22.057 36.9238 21.9586 36.958 21.8531 36.9785C22.3734 35.8984 23.1187 34.8799 23.7867 34.3398C24.2227 33.9912 24.9539 33.6562 25.7344 33.4101C25.6359 33.6699 25.5586 33.9297 25.5234 34.1963C25.4109 34.914 25.5727 35.6933 26.1633 36.2265C26.5922 36.6094 27.1687 36.6709 27.675 36.5888C28.1742 36.5068 28.6594 36.2881 29.0953 36.0078C29.5312 35.7207 29.918 35.3652 30.1922 34.9482C30.4664 34.5312 30.6492 33.998 30.4734 33.4648V33.458C30.2414 32.7696 29.6648 32.2966 29.025 32.0723C28.7508 31.9766 28.4625 31.9226 28.1672 31.8905C28.3711 31.6677 28.582 31.4592 28.793 31.2807C29.2711 30.8815 29.7562 30.6313 30.0305 30.5814L29.7914 29.3728V29.3728ZM12.2906 31.7688L11.2219 32.4223L13.6477 36.1992L9.68203 36.3974L11.5453 40.3486L12.6984 39.8291L11.6086 37.5322L15.8695 37.3203L12.2906 31.7688ZM27.5062 33.0888C27.9352 33.082 28.3148 33.1299 28.5961 33.2324C28.9758 33.3623 29.1656 33.5263 29.2641 33.834C29.2922 33.9092 29.2781 34.0595 29.1305 34.2851C28.9758 34.5176 28.7016 34.7773 28.3922 34.9824C28.0758 35.1875 27.7242 35.331 27.4641 35.372C27.1969 35.4199 27.0773 35.372 27.0211 35.3242C26.775 35.1054 26.7047 34.832 26.775 34.374C26.8312 34.0049 27.007 33.5605 27.2672 33.1025C27.3516 33.1025 27.4289 33.0888 27.5062 33.0888V33.0888ZM6.67898 34.4082C6.38061 34.4082 6.09447 34.5234 5.88349 34.7285C5.67251 34.9336 5.55398 35.2118 5.55398 35.5019C5.55398 35.792 5.67251 36.0702 5.88349 36.2753C6.09447 36.4804 6.38061 36.5957 6.67898 36.5957C6.82678 36.5958 6.97314 36.5675 7.10972 36.5126C7.24629 36.4577 7.37039 36.3771 7.47493 36.2756C7.57947 36.174 7.6624 36.0534 7.71898 35.9206C7.77556 35.7879 7.80468 35.6456 7.80468 35.5019C7.80468 35.3582 7.77556 35.216 7.71898 35.0832C7.6624 34.9505 7.57947 34.8299 7.47493 34.7283C7.37039 34.6267 7.24629 34.5462 7.10972 34.4912C6.97314 34.4363 6.82678 34.4081 6.67898 34.4082V34.4082ZM31.718 36.9511L30.7055 38.0859L29.1727 37.9629L29.9742 39.248L29.3766 40.6289L30.8812 40.2871L32.0484 41.2646L32.182 39.7676L33.4969 38.9883L32.0766 38.4072L31.718 36.9511V36.9511ZM23.0344 38.0791C23.2383 38.0859 23.4281 38.1133 23.5758 38.1543C23.8781 38.2363 24.0398 38.3594 24.1523 38.5918C24.2156 38.7217 24.2227 38.9609 24.1031 39.2754C23.9836 39.5967 23.7375 39.9658 23.4422 40.2734C23.1469 40.581 22.7883 40.8271 22.493 40.9433C22.1977 41.0595 22.0148 41.0527 21.8953 40.9912H21.8883C21.4805 40.7724 21.2836 40.458 21.2062 39.9521C21.1359 39.5215 21.1852 38.9746 21.3328 38.3867C21.6773 38.2705 22.0219 38.1748 22.3523 38.1269C22.5984 38.0927 22.8234 38.0791 23.0344 38.0791ZM8.80312 41.6269C8.29687 41.6133 7.98047 41.7295 7.78359 41.9209C7.58672 42.1123 7.46719 42.4199 7.48125 42.9121C7.49531 43.4111 7.66406 44.0674 7.9875 44.7988C8.63437 46.2685 9.90703 48.039 11.6156 49.707C13.3242 51.3681 15.1523 52.5986 16.6641 53.2275C17.4094 53.542 18.0844 53.706 18.5977 53.7197C19.1109 53.7402 19.4203 53.6172 19.6172 53.4258C19.8141 53.2344 19.9406 52.9336 19.9195 52.4345C19.9055 51.9355 19.7367 51.2793 19.4133 50.5478C18.7664 49.0849 17.5008 47.3076 15.7922 45.6465C14.0836 43.9785 12.2555 42.748 10.7437 42.1191C9.9914 41.8047 9.3164 41.6406 8.80312 41.6269ZM25.1156 43.7666L22.7953 47.458L20.7492 45.5508L19.8773 46.4394L23.0484 49.3994L25.425 45.626L28.1461 47.834L34.425 45.2226L33.9328 44.0879L28.357 46.4121L25.1156 43.7666V43.7666ZM6.56929 44.6347L5.32898 48.5928C8.24062 51.9492 11.6367 53.8359 15.3211 55.0664L16.8398 54.6152C16.6219 54.54 16.3898 54.4511 16.1578 54.3554C14.4422 53.6445 12.5227 52.332 10.7227 50.5752C8.91562 48.8183 7.56562 46.9521 6.83156 45.2842C6.73242 45.0654 6.64523 44.8467 6.56929 44.6347V44.6347ZM4.89445 49.9804L3.90937 53.125C5.9407 54.9707 8.05781 55.8047 10.2797 56.5566L13.3312 55.6543C10.2937 54.4511 7.425 52.6943 4.89445 49.9804V49.9804ZM25.875 50.0625C25.5766 50.0625 25.2905 50.1777 25.0795 50.3828C24.8685 50.5879 24.75 50.8661 24.75 51.1562C24.75 51.4463 24.8685 51.7245 25.0795 51.9296C25.2905 52.1347 25.5766 52.25 25.875 52.25C26.1734 52.25 26.4595 52.1347 26.6705 51.9296C26.8815 51.7245 27 51.4463 27 51.1562C27 50.8661 26.8815 50.5879 26.6705 50.3828C26.4595 50.1777 26.1734 50.0625 25.875 50.0625ZM3.50226 54.4306L2.07562 58.9834L8.28281 57.1445C6.68179 56.5224 5.0639 55.7295 3.50226 54.4306V54.4306Z" fill="#FF5642"/>
<path d="M120.431 6.44412L115.556 1.56912C115.319 1.37478 115.018 1.27546 114.712 1.29049C114.406 1.30552 114.117 1.43381 113.9 1.65043C113.684 1.86704 113.556 2.15648 113.54 2.46245C113.525 2.76842 113.625 3.06905 113.819 3.30584L114.048 3.51912L105.653 9.82616L99.8187 10.9992C99.585 11.0463 99.3689 11.157 99.1941 11.3191L86.3058 24.2226C85.9631 24.5613 85.6911 24.9646 85.5054 25.4091C85.3197 25.8537 85.2241 26.3307 85.2241 26.8125C85.2241 27.2943 85.3197 27.7713 85.5054 28.2158C85.6911 28.6604 85.9631 29.0637 86.3058 29.4023L92.5976 35.6941C92.9363 36.0368 93.3396 36.3089 93.7841 36.4946C94.2287 36.6803 94.7057 36.7759 95.1875 36.7759C95.6693 36.7759 96.1463 36.6803 96.5908 36.4946C97.0354 36.3089 97.4387 36.0368 97.7773 35.6941L110.681 22.8058C110.843 22.6311 110.954 22.4149 111.001 22.1812L112.174 16.3465L118.481 7.95233L118.694 8.18084C118.927 8.40609 119.238 8.53201 119.562 8.53201C119.887 8.53201 120.198 8.40609 120.431 8.18084C120.66 7.94978 120.788 7.6377 120.788 7.31248C120.788 6.98726 120.66 6.67519 120.431 6.44412V6.44412ZM94.3191 33.9726L88.0273 27.6808C87.9122 27.5674 87.8207 27.4323 87.7583 27.2832C87.6959 27.1341 87.6637 26.9741 87.6637 26.8125C87.6637 26.6509 87.6959 26.4909 87.7583 26.3418C87.8207 26.1927 87.9122 26.0575 88.0273 25.9441L89.0937 24.8777L97.1222 32.9062L96.0558 33.9726C95.8248 34.2015 95.5127 34.3299 95.1875 34.3299C94.8623 34.3299 94.5502 34.2015 94.3191 33.9726V33.9726ZM110.056 15.1125C109.951 15.258 109.879 15.4242 109.843 15.6L108.685 21.3433L107.375 22.6535L99.3465 14.625L100.657 13.3148L106.4 12.157C106.576 12.1213 106.742 12.0486 106.887 11.9437L115.784 5.27108L116.729 6.21561L110.056 15.1125Z" fill="#811313"/>
<path d="M143.667 16C143.667 15.0054 143.28 14.0516 142.593 13.3483C141.905 12.6451 140.972 12.25 140 12.25" stroke="#E49542" stroke-width="2" stroke-linecap="round" stroke-linejoin="round"/>
<path d="M140 32.875V34.75C140 35.7446 139.614 36.6984 138.926 37.4016C138.238 38.1049 137.306 38.5 136.333 38.5H130.833C129.861 38.5 128.928 38.8951 128.241 39.5984C127.553 40.3016 127.167 41.2554 127.167 42.25M129 16C129 13.0163 130.159 10.1548 132.222 8.04505C134.285 5.93526 137.083 4.75 140 4.75C142.917 4.75 145.715 5.93526 147.778 8.04505C149.841 10.1548 151 13.0163 151 16C151 25.3187 146.076 32.875 140 32.875C133.924 32.875 129 25.3187 129 16Z" stroke="#E49542" stroke-width="2" stroke-linecap="round" stroke-linejoin="round"/>
<path d="M148.668 57.1848C148.068 56.5015 147.451 55.8182 146.801 55.1683L146.318 54.7183L146.551 54.5183C147.366 53.8187 147.947 52.886 148.215 51.8459C148.483 50.8058 148.426 49.7085 148.051 48.702C147.508 47.5671 146.647 46.6137 145.574 45.9572C144.5 45.3006 143.26 44.969 142.002 45.0023V48.3354C142.595 48.3271 143.179 48.4772 143.695 48.7702C144.21 49.0631 144.638 49.4884 144.935 50.002C145.218 50.6686 144.935 51.4019 144.152 52.1851C144.035 52.3185 143.902 52.4018 143.785 52.5185C138.786 48.5021 133.303 46.2355 130.62 48.9187C130.339 49.206 130.108 49.5384 129.937 49.902V50.0686L129.637 50.9519L122.288 72.7838C122.01 73.6065 121.932 74.4836 122.06 75.3425C122.189 76.2013 122.52 77.0172 123.026 77.7225C123.533 78.4279 124.2 79.0024 124.973 79.3984C125.746 79.7945 126.602 80.0007 127.47 80C128.037 79.9945 128.6 79.8989 129.137 79.7167L152.001 72.1338C152.282 72.0292 152.529 71.8508 152.717 71.6172L153.067 71.3172C155.45 68.9174 153.917 64.301 150.717 59.818C152.617 58.7091 154.805 58.1927 157 58.3347V55.0016C154.063 54.84 151.148 55.6036 148.668 57.1848V57.1848ZM128.17 76.5502C127.792 76.6754 127.386 76.693 126.999 76.6011C126.611 76.5091 126.256 76.3112 125.975 76.0294C125.693 75.7477 125.495 75.3931 125.403 75.0054C125.311 74.6177 125.329 74.212 125.454 73.8337L127.72 67.0008C129.338 70.0855 131.823 72.6289 134.869 74.317L128.17 76.5502ZM139.835 72.6671C137.317 72.0001 135.02 70.6793 133.176 68.8384C131.332 66.9975 130.008 64.7021 129.337 62.1845L131.003 57.1848L131.103 57.3348C131.287 57.7015 131.52 58.0848 131.753 58.4681C131.986 58.8514 132.02 58.9514 132.186 59.2014C132.353 59.4513 132.736 60.0013 133.036 60.4179C133.336 60.8346 133.353 60.8846 133.536 61.1179C133.72 61.3512 134.253 62.0345 134.636 62.4845L135.119 63.0678C135.686 63.7177 136.286 64.351 136.919 65.001C137.552 65.6509 138.052 66.0676 138.586 66.6675L139.136 67.1342L140.435 68.1841L141.052 68.6507C141.519 68.9841 141.969 69.3174 142.435 69.6173L142.952 69.9507C143.552 70.3173 144.152 70.6673 144.735 70.9673H144.818L139.835 72.6671ZM150.684 68.9507H150.584C149.434 69.584 144.652 68.0008 139.269 62.6011C138.702 62.0345 138.169 61.4845 137.686 60.9346L137.202 60.3513L136.319 59.2847L135.836 58.6181C135.619 58.3014 135.386 58.0014 135.186 57.7015L134.753 57.0015L134.269 56.2182C134.136 55.9849 134.036 55.7682 133.92 55.5516C133.803 55.3349 133.67 55.1183 133.57 54.885C133.48 54.6897 133.402 54.4894 133.336 54.285C133.253 54.0684 133.153 53.8517 133.086 53.6517C133.02 53.4517 133.003 53.3351 132.953 53.1351C132.903 52.9351 132.87 52.7684 132.836 52.6018C132.828 52.4575 132.828 52.3128 132.836 52.1685C132.82 52.0356 132.82 51.9013 132.836 51.7685L133.02 51.2519C133.62 50.6519 136.736 51.2519 140.902 54.4183C140.196 54.7371 139.441 54.9343 138.669 55.0016V58.3347C140.439 58.2329 142.157 57.6947 143.668 56.7682L144.468 57.5348C145.168 58.2348 145.818 58.9514 146.435 59.668C145.481 61.3931 145.129 63.3869 145.435 65.3343L148.768 64.6843C148.669 64.066 148.669 63.4361 148.768 62.8178C149.276 63.5891 149.727 64.3968 150.118 65.2343C151.051 67.4342 150.984 68.6674 150.684 68.9507V68.9507Z" fill="#3EB57B"/>
<path d="M72.4901 1.48255C70.4914 1.48219 68.541 2.09729 66.9042 3.24424C66.0813 3.8201 65.3523 4.51973 64.7433 5.31835V5.32269C64.1489 6.10448 63.6759 6.97146 63.3403 7.89436C63.0047 8.81282 62.808 10.1695 62.7617 11.156C62.7617 11.6709 62.8225 12.2914 62.9281 12.9697C62.9657 13.2156 63.0365 13.4904 63.0872 13.7508C63.1797 14.2165 63.2708 14.6765 63.4039 15.1812C63.4965 15.5342 63.6165 15.8929 63.7279 16.2574C63.8566 16.6797 63.981 17.0919 64.1343 17.5215C64.2862 17.9482 64.4569 18.3604 64.6333 18.7885C64.7997 19.1935 64.9703 19.5869 65.1584 19.9832C65.8092 21.3645 66.5614 22.6764 67.4379 23.7771C67.9239 24.3889 68.4446 24.9255 68.9942 25.3783C69.5438 25.8324 70.1209 26.1897 70.7298 26.4341C70.6573 26.4887 70.5873 26.5466 70.5201 26.6077C70.5031 26.6229 70.4862 26.6383 70.4695 26.654C70.4159 26.705 70.3643 26.7581 70.3147 26.8131C70.2976 26.8321 70.2807 26.8514 70.2641 26.8709C70.0905 27.0757 69.9459 27.3035 69.8345 27.5478C69.8241 27.5704 69.814 27.593 69.8042 27.6158C69.7763 27.68 69.7507 27.7451 69.7275 27.8111C69.7122 27.8599 69.6982 27.9091 69.6856 27.9586C69.6753 27.9927 69.6656 28.0269 69.6566 28.0613C69.6396 28.1306 69.6251 28.2006 69.6132 28.271C69.6081 28.2975 69.6032 28.324 69.5988 28.3506C69.5905 28.4125 69.5842 28.4748 69.58 28.5372C69.5762 28.579 69.5733 28.621 69.5713 28.663C69.5698 28.6948 69.5688 28.7266 69.5684 28.7585H75.4118C75.4126 28.5628 75.3937 28.3675 75.3554 28.1756C75.336 28.0804 75.3118 27.9863 75.2831 27.8935C75.2249 27.708 75.1483 27.5287 75.0545 27.3584C75.0082 27.272 74.9575 27.188 74.9027 27.1067C74.7925 26.946 74.6665 26.7968 74.5266 26.6612C74.4575 26.593 74.3851 26.5283 74.3096 26.4674C74.3082 26.4674 74.3068 26.4674 74.3053 26.4674C74.2905 26.4557 74.2755 26.4441 74.2605 26.4327L74.2677 26.4283C74.5727 26.305 74.8668 26.1565 75.1471 25.9843C75.4364 25.8064 75.717 25.6053 75.9918 25.3783C76.2666 25.1526 76.5342 24.9067 76.7945 24.6363C77.9907 23.3953 79.0032 21.7392 79.8348 19.9673C80.0156 19.584 80.1776 19.2022 80.3411 18.8102C80.5204 18.3763 80.6954 17.954 80.8502 17.5172C81.0035 17.089 81.1293 16.6783 81.2581 16.2588C81.3694 15.8929 81.4895 15.5342 81.5806 15.1812C81.7137 14.6765 81.8048 14.2165 81.8974 13.7493C81.948 13.489 82.0189 13.2142 82.0565 12.9697C82.1574 12.3702 82.2135 11.7639 82.2243 11.156C82.178 10.1695 81.9798 8.81282 81.6457 7.89436C81.3097 6.97159 80.8368 6.10466 80.2427 5.32269C80.101 5.13611 79.9288 4.97267 79.7741 4.79766C79.6005 4.5995 79.44 4.39267 79.249 4.20753C77.4343 2.45765 75.0111 1.48068 72.4901 1.48255V1.48255Z" fill="#FF5642"/>
<path d="M72.4901 1.48255C71.8392 1.48255 71.1941 1.57367 70.5533 1.70384C70.8701 1.76893 71.1883 1.82389 71.4978 1.9208C72.9439 2.37078 74.2648 3.15235 75.3553 4.20319C75.5463 4.38688 75.7068 4.59516 75.8804 4.79332C76.0366 4.96833 76.2073 5.13322 76.349 5.31835C76.9439 6.09975 77.417 6.96683 77.752 7.89003C78.0876 8.80848 78.2843 10.1652 78.3306 11.1516C78.3306 11.6665 78.2698 12.2885 78.1642 12.9668C78.1266 13.2113 78.0557 13.4861 78.0051 13.7479C77.9125 14.2122 77.82 14.6736 77.6884 15.1769C77.5958 15.5298 77.4757 15.8885 77.3644 16.2545C77.2356 16.6739 77.1113 17.0847 76.9579 17.5128C76.8017 17.9496 76.6282 18.372 76.4474 18.8073C76.2854 19.1979 76.1234 19.5797 75.9411 19.9644C75.1109 21.7348 74.097 23.3909 72.9008 24.6334C72.6405 24.9024 72.3729 25.1483 72.0981 25.3754C71.6323 25.7758 71.1073 26.1017 70.5418 26.3415C70.6054 26.3705 70.6647 26.4081 70.7298 26.4327C70.6681 26.4799 70.6082 26.5296 70.5505 26.5816C70.5784 26.6062 70.6059 26.6313 70.6329 26.6569C70.7728 26.7924 70.8988 26.9417 71.009 27.1023C71.0643 27.1836 71.1154 27.2676 71.1623 27.354C71.2561 27.5244 71.3326 27.7036 71.3908 27.8892C71.4196 27.9819 71.4437 28.0761 71.4631 28.1712C71.5019 28.3631 71.5213 28.5584 71.521 28.7541H69.5684C69.5684 28.7556 69.5684 28.757 69.5684 28.7585H75.4117C75.4125 28.5628 75.3936 28.3675 75.3553 28.1756C75.3359 28.0804 75.3118 27.9863 75.283 27.8935C75.2248 27.708 75.1483 27.5287 75.0545 27.3584C75.0081 27.272 74.9574 27.188 74.9026 27.1067C74.7924 26.946 74.6665 26.7968 74.5266 26.6612C74.4575 26.593 74.3851 26.5283 74.3096 26.4674C74.3082 26.4674 74.3067 26.4674 74.3053 26.4674C74.2904 26.4557 74.2755 26.4441 74.2604 26.4327L74.2677 26.4298C74.5727 26.306 74.8668 26.157 75.1471 25.9843C75.4363 25.8064 75.7169 25.6053 75.9918 25.3783C76.2666 25.1526 76.5341 24.9067 76.7945 24.6363C77.9907 23.3953 79.0031 21.7392 79.8348 19.9673C80.0156 19.584 80.1776 19.2022 80.341 18.8102C80.5204 18.3763 80.6954 17.954 80.8502 17.5172C81.0035 17.089 81.1293 16.6783 81.258 16.2588C81.3694 15.8929 81.4895 15.5342 81.5806 15.1812C81.7136 14.6765 81.8048 14.2165 81.8973 13.7493C81.948 13.489 82.0188 13.2142 82.0564 12.9697C82.1574 12.3702 82.2135 11.7639 82.2242 11.156C82.1779 10.1695 81.9798 8.81282 81.6457 7.89436C81.3097 6.97159 80.8367 6.10466 80.2427 5.32269C80.1009 5.13611 79.9288 4.97267 79.774 4.79766C79.6005 4.5995 79.4399 4.39267 79.249 4.20753C77.4343 2.45765 75.011 1.48068 72.4901 1.48255V1.48255Z" fill="#ED4B30"/>
<path d="M75.4017 25.8353H69.5728C72.0808 25.8353 75.8428 30.1224 73.3334 35.704C70.8268 41.2856 70.4348 40.817 70.4348 43.9846C70.4348 47.1536 74.5888 50.9012 74.5888 50.9012" stroke="#3D484F" stroke-width="0.999444" stroke-linecap="round" stroke-linejoin="round"/>
<path d="M51.3979 25.6977C49.0622 25.6967 46.7829 26.415 44.8698 27.7548C42.9566 29.0946 41.5024 30.991 40.7048 33.1862C40.3162 34.2589 40.0848 35.8435 40.0291 36.9956C40.0291 41.5481 43.6779 52.5707 49.337 54.8377C48.9175 55.1555 48.5772 55.5662 48.3427 56.0374C48.1083 56.5086 47.986 57.0277 47.9855 57.554H54.8102C54.8099 57.0278 54.6879 56.5088 54.4537 56.0376C54.2196 55.5664 53.8796 55.1557 53.4605 54.8377C59.1195 52.5707 62.7616 41.5481 62.7616 36.9956C62.7076 35.8435 62.4778 34.2589 62.0859 33.1862C61.289 30.9916 59.8356 29.0955 57.9234 27.7556C56.0112 26.4158 53.7328 25.6973 51.3979 25.6977V25.6977Z" fill="#54D186"/>
<path d="M51.3979 25.6977C50.6377 25.6977 49.8809 25.8041 49.1326 25.9562C50.6293 26.2602 52.0837 26.8413 53.3895 27.7552C55.3024 29.0949 56.7563 30.9912 57.5536 33.1862C57.9438 34.2589 58.1753 35.8435 58.2293 36.9956C58.2293 41.4924 54.6734 52.2869 49.1326 54.7363C49.2001 54.7667 49.2677 54.8106 49.3353 54.8377C49.2655 54.893 49.1978 54.951 49.1326 55.0117C49.4917 55.3309 49.7794 55.7224 49.9768 56.1605C50.1741 56.5986 50.2768 57.0735 50.2779 57.554H54.8102C54.8099 57.0278 54.6879 56.5088 54.4538 56.0376C54.2196 55.5664 53.8797 55.1557 53.4605 54.8377C59.1196 52.5707 62.7616 41.5481 62.7616 36.9956C62.7076 35.8435 62.4778 34.2589 62.0859 33.1862C61.289 30.9915 59.8357 29.0955 57.9234 27.7556C56.0112 26.4158 53.7328 25.6973 51.3979 25.6977V25.6977Z" fill="#46AA6F"/>
<path d="M48.0193 54.14H54.8271C51.8979 54.14 47.5041 59.147 50.4333 65.6659C53.3608 72.1848 53.8186 71.6375 53.8186 75.337C53.8186 79.0382 48.9687 83.4151 48.9687 83.4151" stroke="#3D484F" stroke-width="0.999444" stroke-linecap="round" stroke-linejoin="round"/>
<path d="M56.0439 11.3652C56.045 9.53795 55.4833 7.75471 54.4352 6.25793C53.3872 4.76114 51.9036 3.62342 50.1862 2.99946C49.3476 2.69383 48.1041 2.51398 47.2027 2.47095C43.6388 2.47095 35.0127 5.32205 33.2373 9.75096C32.9884 9.42312 32.6671 9.15724 32.2985 8.97408C31.9299 8.79091 31.5239 8.69541 31.1123 8.69504L31.1123 14.0386C31.524 14.0381 31.93 13.9425 32.2986 13.7591C32.6673 13.5758 32.9885 13.3097 33.2373 12.9816C35.0127 17.4105 43.6399 20.2616 47.2027 20.2616C48.1041 20.2197 49.3465 20.0388 50.1862 19.7331C51.9039 19.109 53.3878 17.971 54.4359 16.4738C55.484 14.9765 56.0454 13.1928 56.0439 11.3652V11.3652Z" fill="#F5F8FA"/>
<path d="M56.0439 11.3652C56.0439 10.8731 55.9921 10.3832 55.9115 9.89661C55.6975 11.1765 55.2131 12.4233 54.4363 13.5333C53.3628 15.067 51.8655 16.1814 50.1862 16.7927C49.3476 17.0983 48.1041 17.2781 47.2027 17.3223C43.6388 17.3223 35.0126 14.4701 33.2373 10.0411C32.9886 10.369 32.6676 10.635 32.2991 10.8184C31.9307 11.0018 31.5249 11.0975 31.1134 11.0982L31.1134 14.0386C31.5249 14.038 31.9307 13.9422 32.2991 13.7589C32.6676 13.5755 32.9886 13.3095 33.2373 12.9816C35.0138 17.4105 43.6399 20.2616 47.2027 20.2616C48.1041 20.2197 49.3465 20.0388 50.1862 19.7331C51.9041 19.1092 53.3882 17.9712 54.4365 16.474C55.4848 14.9768 56.0465 13.1929 56.045 11.3652L56.0439 11.3652Z" fill="#ECEFF1"/>
<path d="M33.7835 8.7226L33.7835 14.0497C33.7835 11.758 29.8666 8.31876 24.7635 10.6116C19.6615 12.9033 20.0907 13.2618 17.1944 13.2618C14.298 13.2618 10.8721 9.46516 10.8721 9.46516" stroke="#3D484F" stroke-width="0.999444" stroke-linecap="round" stroke-linejoin="round"/>
<path d="M112.193 67.4391H113.305V81.824H72.6953V67.4391H112.193Z" fill="#FEDB41"/>
<path d="M112.193 59.5059V67.4391H106.398V67.4382V59.5059H112.193Z" fill="#00EFD1"/>
<path d="M108.997 52.4442C109.886 52.5788 110.698 53.0279 111.284 53.7099C111.871 54.3918 112.193 55.2615 112.193 56.161V59.5059H106.398V67.4391H100.76V56.161C100.76 55.2608 101.083 54.3905 101.67 53.7082C102.257 53.026 103.07 52.5771 103.96 52.4433C104.145 52.4159 104.332 52.4021 104.519 52.402H108.434C108.623 52.4019 108.811 52.416 108.997 52.4442V52.4442Z" fill="#00ACEA"/>
<path d="M104.454 45.2244C104.291 45.2202 104.136 45.1524 104.022 45.0353C103.908 44.9183 103.845 44.7614 103.845 44.5982V42.8022C103.845 42.7199 103.861 42.6385 103.893 42.5625C103.924 42.4865 103.97 42.4175 104.028 42.3594C104.087 42.3012 104.156 42.2551 104.232 42.2236C104.308 42.1921 104.389 42.176 104.471 42.176H108.482C108.564 42.176 108.646 42.1921 108.722 42.2236C108.798 42.2551 108.867 42.3012 108.925 42.3594C108.983 42.4175 109.029 42.4865 109.06 42.5625C109.092 42.6385 109.108 42.7199 109.108 42.8022V44.5982C109.108 44.762 109.044 44.9194 108.93 45.0366C108.815 45.1537 108.659 45.2211 108.495 45.2244C108.491 45.2251 108.486 45.2254 108.482 45.2253H104.471C104.466 45.2254 104.46 45.2251 104.454 45.2244V45.2244Z" fill="#00CEB4"/>
<path d="M108.497 45.2594L108.997 52.4442C108.811 52.416 108.623 52.4019 108.434 52.402H104.519C104.332 52.4021 104.145 52.4159 103.96 52.4433L103.955 52.4065L104.454 45.2244C104.46 45.2251 104.466 45.2254 104.471 45.2253H108.482C108.486 45.2254 108.491 45.2251 108.495 45.2244L108.497 45.2594Z" fill="#00EFD1"/>
<path d="M98.7167 59.5059V67.4391H92.9218V67.4382V59.5059H98.7167Z" fill="#00EFD1"/>
<path d="M95.5201 52.4442C96.4095 52.5788 97.2211 53.0279 97.8077 53.7099C98.3942 54.3918 98.7168 55.2615 98.7168 56.161V59.5059H92.9219V67.4391H87.2833V56.161C87.2831 55.2608 87.6061 54.3905 88.1934 53.7082C88.7807 53.026 89.5933 52.5771 90.4835 52.4433C90.6685 52.4159 90.8553 52.4021 91.0423 52.402H94.9577C95.146 52.4019 95.334 52.416 95.5201 52.4442V52.4442Z" fill="#00ACEA"/>
<path d="M90.9776 45.2244C90.8144 45.2202 90.6593 45.1524 90.5455 45.0353C90.4316 44.9183 90.3681 44.7614 90.3685 44.5982V42.8022C90.3685 42.7199 90.3846 42.6385 90.4161 42.5625C90.4476 42.4865 90.4937 42.4175 90.5519 42.3594C90.61 42.3012 90.679 42.2551 90.755 42.2236C90.831 42.1921 90.9124 42.176 90.9947 42.176H95.0053C95.0875 42.176 95.169 42.1921 95.245 42.2236C95.3209 42.2551 95.39 42.3012 95.4481 42.3594C95.5063 42.4175 95.5524 42.4865 95.5839 42.5625C95.6153 42.6385 95.6315 42.7199 95.6315 42.8022V44.5982C95.6318 44.762 95.5678 44.9194 95.4532 45.0366C95.3386 45.1537 95.1826 45.2211 95.0188 45.2244C95.0143 45.2251 95.0098 45.2254 95.0053 45.2253H90.9947C90.989 45.2254 90.9833 45.2251 90.9776 45.2244V45.2244Z" fill="#00CEB4"/>
<path d="M95.0206 45.2594L95.5201 52.4442C95.334 52.416 95.146 52.4019 94.9577 52.402H91.0423C90.8553 52.4021 90.6685 52.4159 90.4835 52.4433L90.4781 52.4065L90.9776 45.2244C90.9833 45.2251 90.989 45.2254 90.9947 45.2253H95.0053C95.0098 45.2254 95.0143 45.2251 95.0188 45.2244L95.0206 45.2594Z" fill="#00EFD1"/>
<path d="M85.2402 59.5059V67.4391H79.4453V67.4382V59.5059H85.2402Z" fill="#00EFD1"/>
<path d="M82.0436 52.4442C82.933 52.5788 83.7446 53.0279 84.3311 53.7099C84.9176 54.3918 85.2402 55.2615 85.2402 56.161V59.5059H79.4453V67.4391H73.8067V56.161C73.8066 55.2608 74.1295 54.3905 74.7168 53.7082C75.3041 53.026 76.1167 52.5771 77.0069 52.4433C77.192 52.4159 77.3787 52.4021 77.5658 52.402H81.4812C81.6694 52.4019 81.8574 52.416 82.0436 52.4442V52.4442Z" fill="#00ACEA"/>
<path d="M77.501 45.2244C77.3378 45.2202 77.1827 45.1524 77.0689 45.0353C76.9551 44.9183 76.8916 44.7614 76.8919 44.5982V42.8022C76.8919 42.7199 76.9081 42.6385 76.9396 42.5625C76.971 42.4865 77.0171 42.4175 77.0753 42.3594C77.1334 42.3012 77.2025 42.2551 77.2785 42.2236C77.3544 42.1921 77.4359 42.176 77.5181 42.176H81.5287C81.611 42.176 81.6924 42.1921 81.7684 42.2236C81.8444 42.2551 81.9134 42.3012 81.9716 42.3594C82.0297 42.4175 82.0758 42.4865 82.1073 42.5625C82.1388 42.6385 82.155 42.7199 82.155 42.8022V44.5982C82.1553 44.762 82.0912 44.9194 81.9766 45.0366C81.862 45.1537 81.706 45.2211 81.5422 45.2244C81.5378 45.2251 81.5333 45.2254 81.5287 45.2253H77.5181C77.5124 45.2254 77.5067 45.2251 77.501 45.2244V45.2244Z" fill="#00CEB4"/>
<path d="M81.544 45.2594L82.0436 52.4442C81.8574 52.416 81.6694 52.4019 81.4811 52.402H77.5657C77.3787 52.4021 77.1919 52.4159 77.0069 52.4433L77.0015 52.4065L77.5011 45.2244C77.5067 45.2251 77.5124 45.2254 77.5181 45.2253H81.5288C81.5333 45.2254 81.5378 45.2251 81.5422 45.2244L81.544 45.2594Z" fill="#00EFD1"/>
<path d="M99.3789 72.3338H86.6211V76.9293H99.3789V72.3338Z" fill="#00ACEA"/>
</svg>
