<svg xmlns="http://www.w3.org/2000/svg" xmlns:xlink="http://www.w3.org/1999/xlink" width="500" zoomAndPan="magnify" viewBox="0 0 375 374.999991" height="500" preserveAspectRatio="xMidYMid meet" version="1.0"><defs><g/><clipPath id="e669e68cba"><path d="M 125.117188 130 L 181 130 L 181 211 L 125.117188 211 Z M 125.117188 130 " clip-rule="nonzero"/></clipPath><clipPath id="e607ed30e7"><path d="M 194 130 L 249.617188 130 L 249.617188 211 L 194 211 Z M 194 130 " clip-rule="nonzero"/></clipPath></defs><g clip-path="url(#e669e68cba)"><path fill="#8b0000" d="M 179.296875 135.136719 L 172.351562 131.25 C 171.289062 130.648438 169.941406 131.046875 169.34375 132.117188 L 157.867188 152.875 L 148.757812 156.941406 C 148.3125 157.140625 147.960938 157.472656 147.71875 157.894531 L 125.824219 197.5 C 125.226562 198.566406 125.625 199.921875 126.6875 200.523438 L 144.910156 210.703125 C 145.238281 210.902344 145.617188 210.992188 145.96875 210.992188 C 146.742188 210.992188 147.496094 210.566406 147.894531 209.855469 L 155.300781 196.457031 L 163.527344 181.566406 L 169.785156 170.253906 C 170.03125 169.832031 170.117188 169.339844 170.050781 168.875 L 168.679688 158.917969 L 180.15625 138.160156 C 180.753906 137.09375 180.355469 135.738281 179.296875 135.136719 Z M 152.539062 192.320312 L 147.296875 189.386719 L 153.378906 178.386719 L 158.617188 181.320312 Z M 164.457031 157.40625 C 164.214844 157.828125 164.125 158.316406 164.191406 158.785156 L 165.5625 168.695312 L 160.742188 177.429688 L 153.578125 173.429688 C 152.515625 172.832031 151.167969 173.230469 150.570312 174.296875 L 142.34375 189.1875 C 142.054688 189.699219 141.988281 190.320312 142.144531 190.878906 C 142.300781 191.433594 142.675781 191.921875 143.207031 192.210938 L 150.371094 196.210938 L 145.109375 205.722656 L 130.753906 197.722656 L 151.210938 160.695312 L 160.320312 156.628906 C 160.765625 156.429688 161.117188 156.097656 161.359375 155.671875 L 172.109375 136.203125 L 175.203125 137.917969 Z M 164.457031 157.40625 " fill-opacity="1" fill-rule="nonzero"/></g><path fill="#8b0000" d="M 187.476562 116.648438 C 186.261719 116.648438 185.265625 117.648438 185.265625 118.871094 L 185.265625 123.601562 C 185.265625 124.824219 186.261719 125.824219 187.476562 125.824219 C 188.695312 125.824219 189.6875 124.824219 189.6875 123.601562 L 189.6875 118.871094 C 189.6875 117.648438 188.695312 116.648438 187.476562 116.648438 Z M 187.476562 116.648438 " fill-opacity="1" fill-rule="nonzero"/><path fill="#8b0000" d="M 187.476562 137.316406 C 186.261719 137.316406 185.265625 138.316406 185.265625 139.539062 L 185.265625 144.273438 C 185.265625 145.496094 186.261719 146.496094 187.476562 146.496094 C 188.695312 146.496094 189.6875 145.496094 189.6875 144.273438 L 189.6875 139.539062 C 189.6875 138.316406 188.695312 137.316406 187.476562 137.316406 Z M 187.476562 137.316406 " fill-opacity="1" fill-rule="nonzero"/><path fill="#8b0000" d="M 179.648438 122.402344 C 179.097656 121.3125 177.769531 120.871094 176.664062 121.425781 C 175.578125 121.980469 175.136719 123.316406 175.691406 124.425781 L 177.835938 128.648438 C 178.234375 129.425781 179.007812 129.871094 179.804688 129.871094 C 180.136719 129.871094 180.488281 129.78125 180.800781 129.625 C 181.882812 129.070312 182.324219 127.738281 181.773438 126.625 Z M 179.648438 122.402344 " fill-opacity="1" fill-rule="nonzero"/><g clip-path="url(#e607ed30e7)"><path fill="#8b0000" d="M 249.109375 197.5 L 227.214844 157.894531 C 226.972656 157.472656 226.617188 157.140625 226.175781 156.941406 L 217.066406 152.875 L 205.589844 132.117188 C 204.992188 131.046875 203.640625 130.648438 202.582031 131.25 L 195.660156 135.136719 C 194.597656 135.738281 194.199219 137.09375 194.796875 138.160156 L 206.273438 158.917969 L 204.902344 168.832031 C 204.835938 169.320312 204.925781 169.785156 205.167969 170.207031 L 211.425781 181.519531 L 215.40625 188.722656 L 227.0625 209.8125 C 227.457031 210.546875 228.210938 210.945312 228.984375 210.945312 C 229.339844 210.945312 229.714844 210.855469 230.046875 210.65625 L 248.269531 200.476562 C 249.328125 199.921875 249.707031 198.566406 249.109375 197.5 Z M 216.976562 182.476562 L 216.335938 181.320312 L 221.578125 178.386719 L 227.65625 189.386719 L 222.417969 192.320312 Z M 229.824219 205.722656 L 224.5625 196.210938 L 231.726562 192.210938 C 232.789062 191.609375 233.1875 190.253906 232.589844 189.1875 L 224.363281 174.296875 C 223.765625 173.230469 222.417969 172.832031 221.355469 173.429688 L 214.191406 177.429688 L 209.371094 168.695312 L 210.742188 158.785156 C 210.808594 158.296875 210.71875 157.828125 210.476562 157.40625 L 199.726562 137.9375 L 202.824219 136.226562 L 213.570312 155.695312 C 213.816406 156.117188 214.167969 156.453125 214.609375 156.652344 L 223.722656 160.71875 L 244.175781 197.746094 Z M 229.824219 205.722656 " fill-opacity="1" fill-rule="nonzero"/></g><path fill="#8b0000" d="M 197.097656 128.648438 L 199.242188 124.425781 C 199.792969 123.335938 199.375 122.003906 198.269531 121.425781 C 197.183594 120.871094 195.859375 121.292969 195.285156 122.402344 L 193.136719 126.625 C 192.585938 127.714844 193.003906 129.046875 194.113281 129.625 C 194.441406 129.78125 194.773438 129.871094 195.105469 129.871094 C 195.925781 129.847656 196.699219 129.425781 197.097656 128.648438 Z M 197.097656 128.648438 " fill-opacity="1" fill-rule="nonzero"/><g fill="#000000" fill-opacity="1"><g transform="translate(155.742605, 250.752528)"><g><path d="M 2.957031 -3.414062 C 1.835938 -3.414062 1.042969 -3.820312 0.585938 -4.6875 L 0.507812 -4.6875 L 0.507812 -0.0273438 C 1.25 0.152344 2.0625 0.253906 2.957031 0.253906 C 7.109375 0.253906 9.605469 -1.554688 9.605469 -6.496094 L 9.605469 -17.328125 L 5.785156 -17.328125 L 5.785156 -6.804688 C 5.785156 -4.992188 5.683594 -3.414062 2.957031 -3.414062 Z M 2.957031 -3.414062 "/></g></g></g><g fill="#000000" fill-opacity="1"><g transform="translate(166.621648, 250.752528)"><g><path d="M 10.320312 -5.605469 C 10.320312 -4.128906 9.171875 -2.804688 7.644531 -2.804688 C 6.113281 -2.804688 4.96875 -4.128906 4.96875 -5.605469 C 4.96875 -7.082031 6.113281 -8.410156 7.644531 -8.410156 C 9.171875 -8.410156 10.320312 -7.082031 10.320312 -5.605469 Z M 14.140625 -11.210938 L 10.320312 -11.210938 L 10.320312 -9.859375 C 9.324219 -11.082031 7.898438 -11.492188 6.472656 -11.492188 C 3.285156 -11.492188 0.890625 -8.714844 0.890625 -5.605469 C 0.890625 -2.496094 3.285156 0.253906 6.472656 0.253906 C 7.898438 0.253906 9.554688 -0.203125 10.320312 -1.351562 L 10.320312 0 L 14.140625 0 Z M 14.140625 -11.210938 "/></g></g></g><g fill="#000000" fill-opacity="1"><g transform="translate(182.290528, 250.752528)"><g><path d="M 13.019531 -6.371094 C 13.019531 -9.425781 11.796875 -11.492188 8.789062 -11.492188 C 7.3125 -11.492188 6.113281 -10.828125 5.351562 -9.859375 L 5.351562 -11.238281 L 1.527344 -11.238281 L 1.527344 0 L 5.351562 0 L 5.351562 -5.605469 C 5.351562 -7.132812 6.292969 -8.410156 7.492188 -8.410156 C 8.6875 -8.410156 9.199219 -7.695312 9.199219 -6.371094 L 9.199219 0 L 13.019531 0 Z M 13.019531 -6.371094 "/></g></g></g><g fill="#000000" fill-opacity="1"><g transform="translate(196.456215, 250.752528)"><g><path d="M 5.351562 -5.605469 C 5.351562 -7.082031 6.496094 -8.410156 8.027344 -8.410156 C 9.554688 -8.410156 10.703125 -7.082031 10.703125 -5.605469 C 10.703125 -4.128906 9.554688 -2.804688 8.027344 -2.804688 C 6.496094 -2.804688 5.351562 -4.128906 5.351562 -5.605469 Z M 5.351562 6.371094 L 5.351562 -1.351562 C 6.113281 -0.203125 7.746094 0.253906 9.199219 0.253906 C 12.382812 0.253906 14.777344 -2.496094 14.777344 -5.605469 C 14.777344 -8.714844 12.382812 -11.492188 9.199219 -11.492188 C 7.746094 -11.492188 6.34375 -11.082031 5.351562 -9.859375 L 5.351562 -11.238281 L 1.527344 -11.238281 L 1.527344 6.371094 Z M 5.351562 6.371094 "/></g></g></g><g fill="#000000" fill-opacity="1"><g transform="translate(212.125096, 250.752528)"><g><path d="M 1.324219 -15.082031 C 1.324219 -13.859375 2.320312 -12.839844 3.566406 -12.839844 C 4.789062 -12.839844 5.808594 -13.859375 5.808594 -15.082031 C 5.808594 -16.332031 4.789062 -17.328125 3.566406 -17.328125 C 2.320312 -17.328125 1.324219 -16.332031 1.324219 -15.082031 Z M 5.476562 0 L 5.476562 -11.238281 L 1.65625 -11.238281 L 1.65625 0 Z M 5.476562 0 "/></g></g></g><path stroke-linecap="butt" transform="matrix(0.748768, 0, 0, 0.75, 231.642529, 228.676787)" fill="none" stroke-linejoin="miter" d="M -0.00254323 0.998659 L 57.09643 0.998659 " stroke="#000000" stroke-width="2" stroke-opacity="1" stroke-miterlimit="4"/><path stroke-linecap="butt" transform="matrix(0.748768, 0, 0, 0.75, 97.13474, 257.41926)" fill="none" stroke-linejoin="miter" d="M -0.00257386 0.998279 L 57.096399 0.998279 " stroke="#000000" stroke-width="2" stroke-opacity="1" stroke-miterlimit="4"/></svg>