<svg id="Layer_1" data-name="Layer 1" xmlns="http://www.w3.org/2000/svg" viewBox="0 0 400 300">
  <defs>
    <style>
      .cls-1 {
        fill: #fff;
      }

      .cls-1, .cls-2 {
        stroke: #231f20;
        stroke-miterlimit: 10;
      }

      .cls-2 {
        fill: none;
      }
    </style>
  </defs>
  <g>
    <g>
      <circle class="cls-1" cx="173.37" cy="71.82" r="31"/>
      <path class="cls-2" d="M158.18,64.51l.09,3.64a1.81,1.81,0,0,1-.37-2.21l2.82-.15a1.57,1.57,0,0,1-2.08-.87,1.45,1.45,0,1,1-1.73,1.74,1.64,1.64,0,0,1,2.4,1.57,1.75,1.75,0,0,1-.59-2.32l2.25-.14"/>
      <path class="cls-2" d="M185.89,66.21a2.89,2.89,0,0,1,1.22,4.1,5,5,0,0,1-3.8.3,2.46,2.46,0,0,1-1.46-3.15c.59-1.17,2.75-1.06,3,.22a4,4,0,0,1-4.67-.25A2.71,2.71,0,0,1,183.88,66v3"/>
      <path class="cls-2" d="M162.6,88.45,191.37,85"/>
      <path class="cls-2" d="M173.24,102.63l-.88,33.59"/>
      <path class="cls-2" d="M53.78,160.06c-.46,2.54-1,5.09-.74,6.61l4.11,22.46c95.12-26.3,195.67-24.39,294.33-22a83.4,83.4,0,0,1-.89-16.55q-89.49-2-179-.68-44.76.69-89.49,2.21C73.48,152.38,55.36,149,51,158c-1.66,3.4-.11,9.34-.11,13a104.23,104.23,0,0,1-2.33,23c1.18,3.69,1.11,8.95,2.29,12.64"/>
      <path class="cls-2" d="M349.77,169c0,4,.85,5.94.85,9.94a1731.11,1731.11,0,0,0-277.4,20.2c-7.21,1.11-15.69,1.53-18.53,8.25a50.28,50.28,0,0,1,2.72-21.72"/>
      <path class="cls-2" d="M213.7,156.81a67.6,67.6,0,0,0-39-43.31c-6.12-2.47-17,2.23-19.91,8.15-1.61,3.23-1.88,6.94-2.13,10.55l-1.49,21.6a33,33,0,0,0-12.77-3.19,1.73,1.73,0,0,1,2.27.61,3.3,3.3,0,0,1,.3,1.68l.06,13.62,10.62-1.74a2.72,2.72,0,0,0,1.54-.6,2.76,2.76,0,0,0,.59-1.81q.53-7.05,1.06-14.09a28.31,28.31,0,0,1-10-2.92,153.06,153.06,0,0,1-.34,21.52c-4.3-4.85-2.74-12.34-.93-18.56"/>
      <path class="cls-2" d="M171.37,134.62v15.2"/>
      <path class="cls-2" d="M161.44,190a47.61,47.61,0,0,1-9.76,18.26,1.22,1.22,0,0,0,1.95-.71"/>
      <path class="cls-2" d="M173.67,186.62a118.38,118.38,0,0,0,1.92,19.16"/>
      <path class="cls-2" d="M51.38,205.83c1.55.06,2.17,2,2.35,3.52A159.63,159.63,0,0,1,52,259.18c3.82-5.65,11.94-5.82,18.75-5.39-6.31-19.12-1.64-39.85-.51-59.95"/>
      <path class="cls-2" d="M335.28,181.89A287.88,287.88,0,0,1,324,237.34c6.86-5.48,16.83-4.69,24.72-8.53a5.06,5.06,0,0,0,2-1.47,5.63,5.63,0,0,0,.7-3.35l0-47.77"/>
    </g>
    <path class="cls-2" d="M146.4,157.05l1.07,6.11a20.51,20.51,0,0,1,2.2-12.3l.1,11.91a20.25,20.25,0,0,1,2.66-10.28c.64,1.83,1.29,3.78.85,5.67s-2.41,3.57-4.24,2.92c-2.2-.77-2.45-3.9-4.27-5.34l.65,3.75"/>
  </g>
</svg>
