<svg id="Layer_1" data-name="Layer 1" xmlns="http://www.w3.org/2000/svg" viewBox="0 0 400 300">
  <defs>
    <style>
      .cls-1 {
        fill: #fff;
      }

      .cls-1, .cls-2 {
        stroke: #231f20;
        stroke-miterlimit: 10;
      }

      .cls-2 {
        fill: none;
      }
    </style>
  </defs>
  <g>
    <circle class="cls-1" cx="173.37" cy="71.82" r="31"/>
    <path class="cls-2" d="M158.18,64.51l.09,3.64a1.81,1.81,0,0,1-.37-2.21l2.82-.15a1.57,1.57,0,0,1-2.08-.87,1.45,1.45,0,1,1-1.73,1.74,1.64,1.64,0,0,1,2.4,1.57,1.75,1.75,0,0,1-.59-2.32l2.25-.14"/>
    <path class="cls-2" d="M185.89,66.21a2.89,2.89,0,0,1,1.22,4.1,5,5,0,0,1-3.8.3,2.46,2.46,0,0,1-1.46-3.15c.59-1.17,2.75-1.06,3,.22a4,4,0,0,1-4.67-.25A2.71,2.71,0,0,1,183.88,66v3"/>
    <path class="cls-2" d="M162.6,88.45,191.37,85"/>
    <path class="cls-2" d="M173.24,102.63l-.88,33.59"/>
    <path class="cls-2" d="M53.78,160.06c-.46,2.54-1,5.09-.74,6.61l4.11,22.46c95.12-26.3,195.67-24.39,294.33-22a83.4,83.4,0,0,1-.89-16.55q-89.49-2-179-.68-44.76.69-89.49,2.21C73.48,152.38,55.36,149,51,158c-1.66,3.4-.11,9.34-.11,13a104.23,104.23,0,0,1-2.33,23c1.18,3.69,1.11,8.95,2.29,12.64"/>
    <path class="cls-2" d="M349.77,169c0,4,.85,5.94.85,9.94a1731.11,1731.11,0,0,0-277.4,20.2c-7.21,1.11-15.69,1.53-18.53,8.25a50.28,50.28,0,0,1,2.72-21.72"/>
    <path class="cls-2" d="M171.37,134.62v15.2"/>
    <path class="cls-2" d="M161.44,190a47.61,47.61,0,0,1-9.76,18.26,1.22,1.22,0,0,0,1.95-.71"/>
    <path class="cls-2" d="M173.67,186.62a118.38,118.38,0,0,0,1.92,19.16"/>
    <path class="cls-2" d="M51.38,205.83c1.55.06,2.17,2,2.35,3.52A159.63,159.63,0,0,1,52,259.18c3.82-5.65,11.94-5.82,18.75-5.39-6.31-19.12-1.64-39.85-.51-59.95"/>
    <path class="cls-2" d="M335.28,181.89A287.88,287.88,0,0,1,324,237.34c6.86-5.48,16.83-4.69,24.72-8.53a5.06,5.06,0,0,0,2-1.47,5.63,5.63,0,0,0,.7-3.35l0-47.77"/>
    <path class="cls-2" d="M211.22,159.55q-2.19-6.72-4.73-13.3c-2.91-7.55-6.3-15.17-12.06-20.85s-14.42-9.07-22.12-6.59c-6.5,2.1-14.95,4.7-21.29,7.27-1.51.61-3.15,1.24-4.73.82-3.13-.83-3.86-5.07-3-8.19,1.34-4.69,4.73-8.46,8-12A132,132,0,0,1,164.6,93.48"/>
    <path class="cls-2" d="M171.48,85.24a2.92,2.92,0,0,0-2.81-.76,4.88,4.88,0,0,0,2.91,6.65,33,33,0,0,0,1.94-8.43,5.31,5.31,0,0,0-5.42-1.28,9.79,9.79,0,0,0,.4,4.67c.64,1.45,2.28,2.58,3.78,2.09a3.56,3.56,0,0,0-2.88-2.07,11,11,0,0,0,3.46,5.52,1.7,1.7,0,0,0-.58-2.58l.15,3.26c1.84-1.77.28-5.56-2.27-5.52a16.05,16.05,0,0,0-1.8,8.63,72.14,72.14,0,0,0-.44-10.6,19.78,19.78,0,0,0,.6,11.67,14,14,0,0,0-.7-10.49,13.26,13.26,0,0,0-2.7,9.77l0-9.43a6.27,6.27,0,0,0-.22,7.81l.34-10.45c0-1.11-.43-2.68-1.51-2.45-.82.18-1,1.24-1,2.08v8c1.59-5.36-.11-7.84,4.73-11.22,1.07-.75,2.38-1.53,3.6-1.07a4,4,0,0,1,1.48,1.16l6.67,7.19a16.37,16.37,0,0,0-6,8.66c-.35,1.26-.66,2.7-1.78,3.35a3.81,3.81,0,0,1-3.54-.34,13.63,13.63,0,0,1-7.24-10.72"/>
  </g>
</svg>
